<svg width="68" height="32" viewBox="0 0 68 32" fill="none" xmlns="http://www.w3.org/2000/svg">
<path d="M36.4396 10.9151C35.8537 11.494 35.8537 12.4325 36.4396 13.0113C37.0255 13.5901 37.9753 13.5901 38.5612 13.0113L49.1692 2.53033C49.7551 1.95148 49.7551 1.01298 49.1692 0.434136C48.5834 -0.144712 47.6335 -0.144712 47.0476 0.434136L36.4396 10.9151Z" fill="#FFCD00"/>
<path d="M36.4396 1.83282C35.8537 2.41167 35.8537 3.35017 36.4396 3.92902C37.0255 4.50786 37.9753 4.50786 38.5612 3.92902L39.9756 2.53155C40.5615 1.9527 40.5615 1.01421 39.9756 0.435359C39.3897 -0.143488 38.4399 -0.143488 37.854 0.43536L36.4396 1.83282Z" fill="#FFCD00"/>
<path d="M48.8174 16.8537C48.2314 17.4324 48.2314 18.3708 48.8174 18.9496C49.4033 19.5284 50.3533 19.5284 50.9393 18.9496L67.5607 2.53171C68.1466 1.95294 68.1466 1.01456 67.5607 0.435783C66.9747 -0.142991 66.0247 -0.142992 65.4388 0.435782L48.8174 16.8537Z" fill="#FFCD00"/>
<path d="M43.5126 13.0112C42.9266 13.59 42.9266 14.5283 43.5126 15.1071C44.0985 15.6859 45.0485 15.6859 45.6345 15.1071L58.3657 2.53171C58.9516 1.95294 58.9516 1.01457 58.3657 0.4358C57.7798 -0.14297 56.8298 -0.14297 56.2438 0.4358L43.5126 13.0112Z" fill="#FFCD00"/>
<path d="M52.7075 24.1894C52.1216 23.6106 52.1216 22.6723 52.7075 22.0935L65.4388 9.5181C66.0247 8.93933 66.9747 8.93933 67.5606 9.5181C68.1466 10.0969 68.1466 11.0352 67.5606 11.614L54.8294 24.1894C54.2434 24.7682 53.2934 24.7682 52.7075 24.1894Z" fill="#FFCD00"/>
<path d="M64.0242 31.1757C63.4383 30.5969 63.4383 29.6586 64.0242 29.0798L65.4388 27.6825C66.0248 27.1037 66.9748 27.1037 67.5607 27.6825C68.1466 28.2613 68.1466 29.1996 67.5607 29.7784L66.1461 31.1757C65.5602 31.7545 64.6102 31.7545 64.0242 31.1757Z" fill="#FFCD00"/>
<path d="M54.8294 31.1757C54.2435 30.5969 54.2435 29.6586 54.8294 29.0798L65.4389 18.6002C66.0248 18.0215 66.9748 18.0215 67.5607 18.6002C68.1467 19.179 68.1467 20.1174 67.5607 20.6962L56.9513 31.1757C56.3653 31.7545 55.4153 31.7545 54.8294 31.1757Z" fill="#FFCD00"/>
<path d="M48.3238 31.6098C49.6476 31.6122 50.6882 30.5213 50.4713 29.2306C49.4476 23.1411 44.5731 18.3261 38.4086 17.315C37.1019 17.1007 35.9975 18.1286 36 19.4362L36 29.2228C36.0025 30.5304 37.0927 31.6073 38.4165 31.6098L48.3238 31.6098Z" fill="#FFCD00"/>
<path fill-rule="evenodd" clip-rule="evenodd" d="M15.4436 14.6379C15.802 14.3631 16.0172 14.1286 16.0172 13.7513C16.0172 13.303 15.6382 13.0281 15.1772 13.0281C14.7165 13.0281 14.3888 13.2828 14.3888 13.7617C14.3888 14.1695 14.6653 14.465 14.9111 14.699L15.1056 14.8827L15.4436 14.6379ZM16.6214 17.9091L14.8496 16.0851L14.5527 16.2787C14.1124 16.5743 13.8972 16.9412 13.8972 17.3998C13.8972 18.1333 14.4401 18.5205 15.2184 18.5205C15.7713 18.5205 16.2427 18.3165 16.6214 17.9091ZM18.1681 15.8917C18.5076 15.8917 18.7695 16.1937 18.6793 16.5193C18.5402 17.0217 18.3289 17.4939 18.0453 17.8989L18.6043 18.4658C18.7988 18.6631 18.7985 18.9792 18.6037 19.1761C18.4041 19.3779 18.0771 19.3778 17.8776 19.176L17.3455 18.6379L17.2155 18.755C16.6318 19.2442 15.925 19.5092 15.1772 19.5092C13.7535 19.5092 12.75 18.7855 12.75 17.4305C12.75 16.4315 13.3951 15.8611 14.0098 15.4636L14.1449 15.3782L14.0098 15.2192C13.5693 14.6991 13.3236 14.3528 13.3236 13.7415C13.3236 12.7938 14.0404 12.1006 15.1465 12.1006C16.2426 12.1006 17.0823 12.712 17.0823 13.7207C17.0823 14.5055 16.5395 14.9641 15.72 15.535L17.2769 17.1349C17.4169 16.9028 17.5222 16.6316 17.5985 16.3498C17.6691 16.0889 17.8965 15.8917 18.1681 15.8917Z" fill="#E73C3E"/>
<path fill-rule="evenodd" clip-rule="evenodd" d="M0.250001 1.72866C0.250001 0.773947 1.0335 0 2 0H7C7.82843 0 8.5 0.663384 8.5 1.48171C8.5 2.30003 7.82843 2.96342 7 2.96342H4C3.58579 2.96342 3.25 3.29511 3.25 3.70427V5.43238C3.25 5.84154 3.58579 6.17323 4 6.17323H6.65548C7.34599 6.17323 7.90576 6.72618 7.90576 7.40827C7.90576 8.09036 7.34599 8.6433 6.65548 8.6433H4C3.58579 8.6433 3.25 8.97499 3.25 9.38416L3.25 12.8415C3.25 13.6598 2.57843 14.3232 1.75 14.3232C0.921573 14.3232 0.25 13.6598 0.25 12.8415L0.250001 1.72866Z" fill="#E73C3E"/>
<path fill-rule="evenodd" clip-rule="evenodd" d="M11.75 0C12.5784 0 13.25 0.663384 13.25 1.48171V5.43293C13.25 6.52403 14 7.65549 15.25 7.65549C16.5 7.65549 17.25 6.52403 17.25 5.43293V1.48171C17.25 0.663384 17.9216 0 18.75 0C19.5784 0 20.25 0.663384 20.25 1.48171V5.43293C20.25 8.16068 18.0114 10.125 15.25 10.125C12.4886 10.125 10.25 8.16068 10.25 5.43293V1.48171C10.25 0.663383 10.9216 0 11.75 0Z" fill="#E73C3E"/>
<path fill-rule="evenodd" clip-rule="evenodd" d="M22 1.48171C22 0.663384 22.6716 0 23.5 0H23.5346C24.0756 0 24.5746 0.287697 24.8407 0.752934L28.9999 8.02592C28.9999 8.02592 29 4.32295 29 1.4815C29 0.663176 29.6716 0 30.5 0C31.3284 0 32 0.663384 32 1.48171V12.8415C32 13.6598 31.3284 14.3232 30.5 14.3232H30.4651C29.9242 14.3232 29.4252 14.0355 29.1591 13.5702L24.9999 6.29726C24.9999 6.29726 25 9.89259 25 12.8419C25 13.6602 24.3284 14.3232 23.5 14.3232C22.6716 14.3232 22 13.6598 22 12.8415V1.48171Z" fill="#E73C3E"/>
<path fill-rule="evenodd" clip-rule="evenodd" d="M22 18.7683C22 17.95 22.6716 17.2866 23.5 17.2866H23.5346C24.0756 17.2866 24.5746 17.5743 24.8407 18.0395L28.9999 25.3125C28.9999 25.3125 29 21.6096 29 18.7681C29 17.9498 29.6716 17.2866 30.5 17.2866C31.3284 17.2866 32 17.95 32 18.7683V30.1281C32 30.9464 31.3284 31.6098 30.5 31.6098H30.4651C29.9242 31.6098 29.4252 31.3221 29.1591 30.8568L24.9999 23.5839C24.9999 23.5839 25 27.1792 25 30.1285C25 30.9468 24.3284 31.6098 23.5 31.6098C22.6716 31.6098 22 30.9464 22 30.1281V18.7683Z" fill="#E73C3E"/>
<path fill-rule="evenodd" clip-rule="evenodd" d="M11.7506 21.4848C12.579 21.4848 13.2506 22.1482 13.2506 22.9665V26.9177C13.2506 28.0088 14.0006 29.1403 15.2506 29.1403C16.5006 29.1403 17.2506 28.0088 17.2506 26.9177V22.9665C17.2506 22.1482 17.9222 21.4848 18.7506 21.4848C19.579 21.4848 20.2506 22.1482 20.2506 22.9665V26.9177C20.2506 29.6455 18.012 31.6098 15.2506 31.6098C12.4892 31.6098 10.2506 29.6455 10.2506 26.9177V22.9665C10.2506 22.1482 10.9222 21.4848 11.7506 21.4848Z" fill="#E73C3E"/>
<path d="M9 27.5501C9 28.808 8.54984 29.7991 7.64953 30.5234C6.75551 31.2477 5.50892 31.6098 3.90976 31.6098C2.74119 31.6098 1.67957 31.4339 0.724896 31.0822C0.270885 30.9149 0 30.4688 0 29.9901C0 29.071 0.960479 28.4689 1.84366 28.7582C2.02544 28.8178 2.19787 28.8693 2.36097 28.9129C3.00944 29.0844 3.49436 29.1211 4.02951 29.1211C4.6717 29.1211 5.16278 28.9972 5.50275 28.7495C5.84903 28.5017 6.02217 28.1332 6.02217 27.644C6.02217 27.3708 5.94662 27.1294 5.79551 26.9198C5.64441 26.7038 5.42091 26.4973 5.125 26.3003C4.83539 26.1034 4.34732 25.8379 3.44701 25.4059C2.60336 25.0057 1.97062 24.6213 1.54879 24.2528C1.12697 23.8844 0.790137 23.4555 0.5383 22.9663C0.286464 22.4771 0.160546 21.9053 0.160546 21.251C0.160546 20.0185 0.572928 19.0496 1.39769 18.3444C2.22875 17.6392 3.37461 17.2866 4.83526 17.2866C5.55299 17.2866 6.2361 17.3724 6.88458 17.5439C7.18145 17.6217 7.48415 17.7138 7.79267 17.8203C8.43881 18.0434 8.72924 18.7659 8.47166 19.3923C8.20624 20.0378 7.46153 20.3347 6.79284 20.1132C6.56127 20.0364 6.34945 19.9742 6.1574 19.9263C5.67891 19.8056 5.3409 19.7561 4.875 19.7561C4.32096 19.7561 3.89599 19.8864 3.60008 20.1468C3.30417 20.4073 3.15622 20.7472 3.15622 21.1665C3.15622 21.427 3.21603 21.6557 3.33565 21.8527C3.45527 22.0433 3.64415 22.2307 3.90228 22.4149C4.16671 22.5928 4.65268 22.906 5.62854 23.3761C6.9192 23.9987 7.80378 24.6245 8.28227 25.2535C8.76076 25.8761 9 26.6416 9 27.5501Z" fill="#E73C3E"/>
</svg>
